<svg width="35" height="35" viewBox="0 0 35 35" fill="none" xmlns="http://www.w3.org/2000/svg">
<path d="M16.2059 18.9851C16.949 19.7201 18.1467 19.7174 18.8879 18.9775L24.586 13.2796C25.3288 12.5367 25.3288 11.3323 24.586 10.5895C23.8432 9.84667 22.6388 9.84667 21.8959 10.5895L19.4451 13.0402V3.62145C19.4451 2.57084 18.5935 1.71927 17.543 1.71927C16.4924 1.71927 15.6408 2.57084 15.6408 3.62145V13.0403L13.19 10.5896C12.4471 9.84667 11.2427 9.84667 10.4999 10.5896C9.75711 11.3325 9.75711 12.5369 10.4999 13.2796C10.5853 13.3652 16.1204 18.9003 16.2059 18.9851Z" fill="white"/>
<path d="M32.8433 23.7699H2.15677C0.965622 23.7699 0 24.7355 0 25.9267V31.124C0 32.3151 0.965622 33.2807 2.15677 33.2807H32.8432C34.0344 33.2807 35 32.3151 35 31.124V25.9267C35.0001 24.7355 34.0345 23.7699 32.8433 23.7699Z" fill="white"/>
</svg>
